<svg id="Layer_1" data-name="Layer 1" xmlns="http://www.w3.org/2000/svg" viewBox="0 0 595.28 841.89"><defs><style>.cls-1{fill:#ff0013;}</style></defs><path class="cls-1" d="M315.92,516.64a50.23,50.23,0,0,1,75.74-49.33l.31.19c8.88-13.27,14.95-28.21,17-43.55,3-22.62.59-45.32,1.48-64,0-23.12-.37-42.27.19-61.39.21-7.18-2.35-8.6-8.81-8.55-34.17.23-68.36.38-102.53,0-23.46-.27-44.93,5.83-64.07,19-29.78,20.55-46.56,48.95-50,85.25-2.69,28.48,4.07,54.24,20.72,77.29a50.22,50.22,0,0,1,82.16,38.75,49.68,49.68,0,0,1-.61,7.77A116.58,116.58,0,0,0,316,516.94C316,516.84,315.93,516.74,315.92,516.64ZM295.16,465.4c-30.48-1.31-55.33-25.21-57.14-54.94-2.37-39.2,24.59-67.68,64-67.6,16.41,0,32.81.23,49.21.05,5-.05,6.6,1.69,6.4,6.69-.37,9.27-.11,18.57-.11,29.73-.63,10.67.67,23.2-1.16,35.77C352.08,444.48,325.38,466.71,295.16,465.4Z"/><circle class="cls-1" cx="237.88" cy="512.36" r="39.53"/><circle class="cls-1" cx="367.3" cy="512.36" r="39.53"/></svg>